<?xml version="1.0" encoding="utf-8"?>
<!-- Generator: Adobe Illustrator 19.2.0, SVG Export Plug-In . SVG Version: 6.00 Build 0)  -->
<svg version="1.1" id="Layer_1" xmlns="http://www.w3.org/2000/svg" xmlns:xlink="http://www.w3.org/1999/xlink" x="0px" y="0px"
	 viewBox="0 0 64 64" style="enable-background:new 0 0 64 64;" xml:space="preserve">
<style type="text/css">
	.st0{fill:#556F7B;}
</style>
<title>coupon-promo</title>
<title>coupon-promo</title>
<title>coupon-promo</title>
<path class="st0" d="M30,34l1,0.5C27.3,37.2,20.3,46.9,18.1,52L10,43.7l2.4-1.9l4.3,4.4C21.9,38.9,30,34,30,34z M26,55H9V38h3.9
	l0.2-0.2l0.2,0.2h7.8c0.8-0.7,1.5-1.4,2.2-2H9c-1.1,0-2,0.9-2,2v17c0,1.1,0.9,2,2,2h17c1.1,0,2-0.9,2-2V40.7c-0.7,0.8-1.3,1.8-2,2.6
	V55z M7,27V10c0-1.1,0.9-2,2-2h17c1.1,0,2,0.9,2,2v17c0,1.1-0.9,2-2,2H9C7.9,29,7,28.1,7,27z M9,27h17V10H9V27z M58,6
	c0,0-8.1,4.9-13.4,12.2l-4.3-4.4L38,15.7l8.1,8.3C48.3,18.9,55.3,9.2,59,6.5L58,6z M56,38v17c0,1.1-0.9,2-2,2H37c-1.1,0-2-0.9-2-2
	V38c0-1.1,0.9-2,2-2h17C55.1,36,56,36.9,56,38z M54,38H37v17h17V38z M54,27H37V10h3.9l0.2-0.2l0.2,0.2h7.8c0.8-0.7,1.5-1.4,2.2-2H37
	c-1.1,0-2,0.9-2,2v17c0,1.1,0.9,2,2,2h17c1.1,0,2-0.9,2-2V12.7c-0.7,0.8-1.3,1.8-2,2.6V27z"/>
</svg>
